<?xml version="1.0" standalone="no"?>
<!DOCTYPE svg PUBLIC "-//W3C//DTD SVG 20010904//EN"
 "http://www.w3.org/TR/2001/REC-SVG-20010904/DTD/svg10.dtd">
<svg version="1.0" xmlns="http://www.w3.org/2000/svg"
 width="147.000000pt" height="174.000000pt" viewBox="0 0 147.000000 174.000000"
 preserveAspectRatio="xMidYMid meet">
<metadata>
Created by potrace 1.16, written by Peter Selinger 2001-2019
</metadata>
<g transform="translate(0.000000,174.000000) scale(0.100000,-0.100000)"
fill="#000000" stroke="none">
<path d="M546 1704 c6 -33 5 -35 -17 -32 -21 3 -24 0 -21 -27 2 -16 10 -58 18
-93 7 -34 13 -66 11 -71 -1 -5 1 -10 6 -11 15 -3 97 12 97 19 0 3 -12 61 -27
129 -25 114 -28 122 -50 122 -22 0 -23 -3 -17 -36z"/>
<path d="M881 1723 c1 -24 17 -63 18 -44 1 8 3 12 5 10 2 -2 -4 -45 -14 -94
-24 -112 -24 -115 -2 -116 14 0 14 -2 -3 -9 -13 -6 -15 -9 -5 -9 29 -1 37 15
55 109 14 70 20 88 25 70 l6 -25 6 27 c3 16 0 29 -6 32 -6 2 -1 5 12 5 16 1
22 7 22 25 0 19 -6 24 -37 30 -64 10 -83 8 -82 -11z"/>
<path d="M700 1685 c-22 -23 -22 -25 -6 -49 17 -27 45 -26 47 3 0 10 2 12 6 3
2 -7 -10 -26 -27 -42 -28 -26 -32 -35 -27 -65 4 -26 3 -34 -6 -29 -7 4 -3 -2
7 -14 20 -23 41 -28 50 -13 4 5 -2 7 -13 4 -10 -3 -21 -1 -24 4 -3 5 17 7 44
6 l51 -4 -4 101 c-1 56 -7 104 -12 107 -5 4 -6 1 -2 -5 4 -7 -4 -9 -27 -5 -28
4 -37 1 -51 -18 -9 -13 -16 -18 -16 -12 0 6 12 21 26 32 15 12 22 21 17 21 -5
0 -20 -11 -33 -25z"/>
<path d="M1055 1630 c-3 -5 -3 -10 1 -10 4 0 0 -8 -8 -17 -17 -20 -58 -109
-58 -127 0 -23 18 -38 53 -46 29 -6 39 -4 49 9 12 15 11 15 -6 1 -19 -15 -19
-15 -1 13 16 24 16 30 4 38 -22 14 -39 11 -39 -8 0 -9 -3 -14 -6 -10 -3 3 -3
15 1 26 5 17 10 19 25 11 28 -15 36 -12 48 15 25 55 9 95 -37 95 -21 0 -23 2
-11 10 9 6 10 10 3 10 -6 0 -15 -4 -18 -10z"/>
<path d="M239 1555 c-1 -3 -2 -8 -3 -12 -3 -17 -18 -33 -26 -28 -13 8 -23 -14
-16 -38 3 -12 17 -35 31 -52 l26 -30 -25 40 c-14 22 -26 49 -25 60 0 15 3 13
9 -8 5 -16 20 -43 34 -62 28 -37 33 -50 14 -40 -7 4 2 -7 20 -24 18 -17 36
-31 41 -31 21 0 71 53 70 73 -2 22 -2 22 -6 0 -4 -21 -46 -63 -63 -63 -4 0
-18 9 -31 21 l-24 20 28 -17 c25 -15 29 -15 53 1 22 14 25 22 20 46 -4 22 -2
28 7 23 7 -4 8 -3 4 2 -5 5 -12 9 -17 9 -4 0 -24 23 -44 50 l-37 50 42 -45
c43 -45 35 -27 -8 21 -17 19 -32 25 -51 22 -23 -3 -24 -2 -7 6 17 8 18 10 3
10 -10 1 -19 -1 -19 -4z"/>
<path d="M1186 1520 c-27 -34 -29 -44 -3 -15 21 21 17 12 -13 -32 -31 -45 -41
-69 -38 -87 3 -14 1 -23 -3 -20 -14 8 -10 47 7 74 l16 25 -21 -24 c-27 -30
-27 -63 1 -87 12 -10 18 -13 13 -5 -6 11 -4 13 9 8 10 -4 25 -7 34 -8 11 -1 8
-4 -8 -10 l-25 -8 25 2 c14 1 25 7 25 12 0 17 16 36 25 30 5 -3 12 0 16 6 4 8
3 9 -4 5 -7 -4 -12 -1 -12 7 0 23 -31 29 -47 10 -13 -17 -13 -17 -4 2 5 11 24
36 41 55 18 19 27 27 20 17 -10 -13 -10 -21 -2 -29 9 -9 8 -16 -1 -27 -10 -14
-10 -14 5 -3 9 8 21 11 26 8 12 -7 42 37 42 62 0 11 -7 25 -15 32 -22 18 -94
18 -109 0z"/>
<path d="M46 1471 c-16 -18 -15 -20 31 -61 35 -31 41 -38 20 -29 -15 7 -27 15
-27 19 0 5 -6 8 -12 7 -7 0 -22 1 -33 2 l-20 2 20 10 c18 8 19 9 1 6 -37 -4
-29 -44 16 -85 86 -76 116 -107 61 -62 -29 23 -55 46 -59 51 -3 5 -15 14 -27
20 -26 13 -26 13 78 -77 44 -38 74 -61 66 -51 -15 19 -2 24 17 5 7 -7 16 -8
25 -2 7 5 4 1 -6 -8 -11 -10 -15 -18 -10 -18 6 0 18 8 27 19 16 18 15 21 -31
61 l-48 42 54 -27 c43 -21 55 -24 62 -13 14 21 12 23 -63 89 -40 35 -83 72
-95 82 -19 17 -25 18 -40 7 -17 -13 -17 -13 -1 5 20 21 7 29 126 -74 39 -35
72 -61 72 -58 0 8 -173 157 -181 157 -3 0 -14 -8 -23 -19z"/>
<path d="M1425 1483 c6 -8 -25 -43 -38 -43 -6 0 -2 10 9 22 10 12 -24 -15 -76
-62 -52 -46 -94 -90 -92 -98 2 -9 -1 -11 -10 -6 -7 4 5 -13 26 -39 21 -26 43
-47 48 -47 6 0 41 27 78 60 57 51 67 64 62 86 -2 14 -11 28 -18 31 -9 3 -5 12
14 28 24 20 25 25 12 41 -13 18 -13 18 5 2 18 -17 18 -18 0 -40 l-19 -23 24
23 24 22 -27 25 c-15 14 -25 22 -22 18z"/>
<path d="M681 1215 c-10 -11 -17 -25 -14 -32 2 -6 -1 -15 -8 -19 -8 -5 -9 -3
-4 6 5 8 4 11 -3 6 -6 -4 -8 -14 -5 -23 4 -11 3 -14 -5 -9 -8 5 -10 1 -5 -10
5 -13 3 -15 -7 -9 -8 5 -11 4 -7 -2 4 -6 4 -31 1 -56 -5 -33 -11 -44 -23 -43
-11 1 -17 -8 -18 -29 l-2 -30 9 30 8 30 1 -33 c1 -30 3 -33 24 -26 37 13 132
7 165 -10 39 -20 43 -20 35 1 -5 12 -3 14 8 8 8 -5 11 -5 6 1 -5 5 -14 9 -20
9 -7 1 -11 6 -10 13 2 7 -2 11 -8 9 -7 -1 -25 23 -41 53 -26 48 -29 63 -26
120 3 58 1 66 -15 66 -9 0 -26 -9 -36 -21z"/>
<path d="M258 454 c-60 -47 -108 -91 -108 -97 1 -7 13 -26 28 -44 26 -30 30
-31 52 -20 14 7 30 15 35 18 5 2 9 6 8 9 -1 3 -5 13 -9 23 -5 13 -3 18 7 16
27 -6 61 21 55 44 -3 13 1 25 12 33 23 18 29 17 36 -2 5 -14 4 -15 -7 -5 -11
9 -17 8 -26 -3 -9 -11 -9 -16 0 -22 7 -4 9 -3 5 4 -3 6 -2 13 3 16 5 4 12 2
16 -3 3 -6 13 -7 22 -4 9 4 -14 -30 -51 -75 -61 -73 -90 -103 -70 -70 4 7 3 8
-4 4 -6 -4 -8 -14 -5 -23 5 -12 3 -14 -8 -9 -8 4 4 -8 25 -27 22 -19 46 -32
55 -30 19 6 121 135 122 155 0 7 5 4 10 -7 l9 -20 -3 20 c-1 11 -9 20 -17 20
-8 0 -15 5 -15 12 0 6 -4 15 -9 20 -5 5 -6 3 -2 -4 10 -17 -9 -17 -23 0 -8 10
-7 17 1 25 16 16 20 49 8 57 -6 3 -10 11 -10 17 0 6 7 5 18 -3 14 -11 14 -10
-2 8 -10 13 -22 20 -26 18 -10 -6 -32 20 -23 28 3 4 4 7 2 7 -2 0 -52 -39
-111 -86z"/>
<path d="M1125 528 c-11 -6 -49 -40 -84 -75 -61 -59 -64 -64 -48 -80 13 -13
20 -14 28 -6 9 9 27 -6 73 -59 33 -38 63 -75 65 -81 2 -7 -24 20 -58 60 -55
63 -67 71 -92 68 -16 -2 -27 0 -24 5 3 5 0 12 -6 15 -7 5 -10 0 -7 -11 2 -14
12 -19 36 -19 27 0 41 -10 89 -65 31 -36 63 -64 71 -62 9 2 11 -1 6 -10 -4 -7
5 -2 19 11 15 14 27 29 27 34 0 5 -8 1 -17 -10 -10 -10 -14 -13 -9 -6 9 14 7
18 -73 111 -43 49 -52 65 -41 72 13 8 34 -4 147 -88 36 -27 46 -24 68 19 12
21 13 34 5 48 -13 26 -13 34 3 25 9 -6 9 -5 0 7 -14 18 -103 82 -103 75 0 -3
20 -19 45 -37 25 -18 43 -35 40 -37 -3 -3 -15 4 -28 15 -12 12 -44 35 -71 52
-49 31 -56 41 -13 20 21 -10 21 -10 3 5 -23 19 -25 19 -51 4z"/>
<path d="M922 382 c1 -4 -2 -15 -7 -25 -6 -15 -10 -16 -17 -5 -8 10 -9 10 -5
-2 2 -8 9 -14 15 -13 10 2 102 -156 102 -174 -1 -4 -10 9 -21 30 -11 20 -22
37 -24 37 -3 0 4 -18 15 -40 11 -22 26 -39 33 -37 6 1 12 -6 12 -15 0 -9 4
-20 9 -25 5 -4 6 -3 2 4 -5 9 8 20 38 34 31 16 42 27 38 37 -4 11 -1 13 8 7 8
-5 11 -4 7 3 -7 11 -53 10 -64 -2 -7 -7 -73 102 -72 119 0 6 9 -7 20 -27 11
-21 22 -38 24 -38 3 0 -4 18 -15 40 -12 23 -25 38 -30 35 -5 -3 -16 7 -24 23
-14 26 -48 53 -44 34z"/>
<path d="M523 324 c4 -6 -9 -10 -36 -10 -29 1 -41 -3 -39 -12 1 -7 -9 -35 -23
-62 -38 -76 -30 -110 27 -110 35 0 62 45 37 61 -20 13 -29 11 -29 -6 0 -8 -5
-15 -10 -15 -7 0 -7 7 0 21 7 11 17 18 23 16 7 -3 19 -8 28 -11 12 -5 19 3 29
33 7 22 10 49 7 60 -3 12 -2 19 3 16 17 -11 17 -77 0 -144 l-18 -71 21 -1 c21
0 21 -1 2 -10 -20 -9 -20 -9 0 -6 15 2 24 18 40 77 16 58 25 74 38 72 10 -2
19 6 22 21 4 14 14 23 27 24 21 2 21 2 -1 -14 -19 -13 -22 -23 -20 -72 1 -31
-1 -63 -5 -71 -3 -8 -4 -24 -3 -35 1 -11 -4 -20 -12 -20 -8 0 -16 -7 -18 -15
-4 -13 -3 -13 7 0 9 12 10 10 8 -10 -3 -24 -1 -25 64 -26 37 -1 65 2 63 6 -2
4 0 20 5 36 10 29 10 29 6 2 -2 -15 0 -25 5 -23 4 3 10 -1 12 -7 10 -25 7 10
-3 37 -5 14 -14 24 -19 21 -5 -3 -15 2 -22 11 -12 14 -12 16 0 8 10 -5 12 -4
7 3 -4 7 -19 10 -34 7 -24 -5 -25 -4 -5 4 28 13 43 41 43 81 0 48 20 32 46
-36 24 -63 31 -114 14 -114 -5 0 -10 -9 -10 -20 0 -16 6 -20 31 -18 16 1 36 9
42 17 7 8 8 12 2 9 -7 -4 -9 38 -7 122 l4 128 -25 -5 c-23 -4 -25 -9 -22 -42
l4 -36 -11 38 c-8 26 -19 39 -35 43 -13 4 -27 4 -30 0 -4 -3 5 -6 18 -7 22 -1
22 -1 -5 -9 -18 -6 -35 -5 -45 1 -14 9 -13 10 2 5 10 -3 16 -2 12 3 -3 5 -21
8 -40 7 -20 -2 -38 1 -41 5 -3 5 -13 9 -22 8 -14 0 -14 -2 3 -10 15 -7 10 -8
-19 -3 -27 4 -42 1 -47 -8 -6 -9 -9 -7 -9 8 0 11 -10 29 -22 40 -12 10 -19 14
-15 8z"/>
</g>
</svg>
